<?xml version="1.0" standalone="no"?>
<!DOCTYPE svg PUBLIC "-//W3C//DTD SVG 20010904//EN"
 "http://www.w3.org/TR/2001/REC-SVG-20010904/DTD/svg10.dtd">
<svg version="1.0" xmlns="http://www.w3.org/2000/svg"
 width="1024.000000pt" height="1024.000000pt" viewBox="0 0 1024.000000 1024.000000"
 preserveAspectRatio="xMidYMid meet">

<g transform="translate(0.000000,1024.000000) scale(0.100000,-0.100000)"
fill="#000000" stroke="none">
<path d="M0 5120 l0 -5120 5120 0 5120 0 0 5120 0 5120 -5120 0 -5120 0 0
-5120z m2198 1115 c75 -32 122 -102 122 -182 -1 -158 -154 -249 -298 -177
-110 55 -141 188 -70 294 48 71 161 100 246 65z m5210 -937 l2 -908 -170 0
-170 0 0 76 0 76 -55 -50 c-100 -92 -212 -132 -365 -132 -261 1 -473 176 -545
450 -10 38 -19 121 -22 200 -9 249 47 420 182 555 115 116 235 165 402 165
152 0 264 -40 351 -127 l53 -52 -1 322 c0 177 0 324 0 327 0 3 75 5 168 5
l167 0 3 -907z m-3588 687 l0 -155 -242 0 -243 0 3 -715 2 -715 -187 0 -188 0
3 715 2 715 -240 0 -240 0 0 155 0 155 665 0 665 0 0 -155z m830 -442 l0 -185
-22 6 c-104 30 -215 30 -284 1 -53 -22 -109 -81 -140 -147 l-29 -63 -3 -382
-3 -383 -170 0 -169 0 0 655 0 655 171 0 171 0 -4 -110 c-2 -60 -3 -110 -2
-110 1 0 16 24 32 53 77 136 229 211 404 199 l48 -4 0 -185z m884 167 c199
-51 323 -171 355 -345 7 -37 11 -229 11 -517 l0 -458 -165 0 -165 0 0 70 c0
39 -3 70 -6 70 -3 0 -27 -18 -52 -41 -89 -78 -230 -129 -357 -129 -178 0 -346
93 -412 229 -24 50 -28 68 -28 156 0 87 3 107 26 155 69 148 185 205 529 264
254 44 290 60 290 129 0 60 -67 137 -137 156 -61 17 -172 13 -218 -8 -51 -23
-101 -79 -116 -131 l-12 -40 -169 0 -169 0 7 38 c38 209 174 358 371 406 92
23 323 20 417 -4z m2831 5 c164 -34 301 -137 369 -276 52 -108 67 -176 73
-331 l6 -138 -334 -2 c-184 -2 -387 -2 -451 -1 -65 1 -118 -1 -118 -5 1 -35
33 -149 53 -188 49 -96 135 -148 247 -148 117 0 204 47 242 130 11 24 12 24
176 24 l165 0 -7 -32 c-4 -18 -20 -61 -36 -96 -60 -129 -209 -240 -365 -273
-82 -17 -255 -14 -340 5 -229 54 -393 218 -452 451 -27 110 -24 336 5 440 70
244 239 407 462 445 76 13 231 10 305 -5z m-6085 -675 l0 -650 -165 0 -165 0
0 650 0 650 165 0 165 0 0 -650z"/>
<path d="M6695 5441 c-87 -22 -162 -84 -210 -172 -77 -142 -74 -341 8 -478 66
-109 161 -159 283 -148 195 18 315 195 301 442 -6 112 -35 189 -94 255 -73 82
-197 125 -288 101z"/>
<path d="M5398 4965 c-75 -13 -154 -29 -175 -35 -174 -57 -218 -232 -78 -308
48 -26 187 -22 247 7 54 26 107 81 139 143 28 53 41 219 18 217 -8 -1 -76 -12
-151 -24z"/>
<path d="M8101 5463 c-85 -30 -150 -117 -175 -233 l-5 -25 279 0 c154 0 280 1
280 3 0 2 -7 35 -16 74 -14 63 -22 77 -65 119 -78 75 -192 99 -298 62z"/>
</g>
</svg>
